<?xml version="1.0" standalone="no"?>
<!DOCTYPE svg PUBLIC "-//W3C//DTD SVG 20010904//EN"
 "http://www.w3.org/TR/2001/REC-SVG-20010904/DTD/svg10.dtd">
<svg version="1.0" xmlns="http://www.w3.org/2000/svg"
 width="569.000000pt" height="569.000000pt" viewBox="0 0 569.000000 569.000000"
 preserveAspectRatio="xMidYMid meet">
<metadata>
Created by potrace 1.14, written by Peter Selinger 2001-2017
</metadata>
<g transform="translate(0.000000,569.000000) scale(0.100000,-0.100000)"
fill="#000000" stroke="none">
<path d="M823 4168 c-9 -11 -23 -74 -49 -218 -2 -14 -9 -45 -14 -70 -5 -25
-12 -60 -15 -78 -3 -18 -12 -65 -21 -105 -8 -39 -17 -81 -20 -92 -2 -11 -6
-31 -10 -45 -3 -14 -7 -36 -9 -50 -5 -36 -14 -81 -22 -110 -9 -35 -10 -43 -16
-87 -3 -21 -8 -45 -11 -53 -3 -8 -7 -28 -10 -45 -3 -16 -23 -120 -46 -230 -23
-110 -42 -210 -42 -223 0 -12 -5 -25 -9 -28 -5 -3 -7 -9 -4 -14 3 -5 1 -20 -5
-34 -5 -14 -12 -47 -16 -73 -3 -27 -8 -50 -9 -53 -2 -3 -6 -25 -10 -50 -4 -25
-8 -48 -11 -51 -2 -4 -6 -24 -10 -44 -3 -21 -7 -45 -9 -54 -2 -9 -15 -74 -30
-146 -24 -119 -30 -151 -40 -210 -2 -11 -4 -21 -5 -22 -4 -5 -21 -91 -25 -123
-1 -8 -7 -40 -14 -70 -18 -85 -58 -285 -67 -330 -2 -14 -9 -47 -14 -73 -18
-85 -16 -87 39 -87 55 0 62 -8 51 -57 -4 -18 -5 -34 -2 -37 9 -10 486 -6 501
3 11 7 40 131 85 365 2 12 23 113 45 225 l41 204 226 224 c124 124 227 223
228 221 2 -1 26 -57 53 -123 87 -207 185 -439 201 -475 9 -19 16 -37 17 -40 1
-3 9 -23 19 -45 10 -22 27 -62 37 -89 11 -27 29 -69 40 -92 10 -24 34 -80 53
-126 63 -155 64 -158 102 -158 15 0 26 -12 40 -42 10 -24 23 -46 29 -50 12 -9
526 -11 548 -2 13 5 13 10 -3 42 -23 47 -62 133 -89 197 -12 28 -28 62 -36 76
-8 14 -12 29 -8 33 3 3 1 6 -5 6 -7 0 -12 3 -11 8 2 15 -14 52 -23 52 -5 0 -7
3 -4 8 2 4 -3 23 -12 42 -8 19 -16 37 -17 40 -1 3 -9 22 -18 42 -9 21 -25 55
-34 75 -9 21 -17 40 -17 43 -1 3 -8 21 -17 40 -22 47 -40 88 -84 195 -21 50
-41 92 -44 95 -3 3 -7 12 -9 20 -2 8 -10 29 -17 45 -13 28 -114 258 -138 315
-5 14 -10 28 -9 33 1 4 -3 7 -9 7 -5 0 -8 4 -4 9 3 5 -2 16 -10 25 -8 8 -14
19 -13 23 1 4 -10 33 -24 63 -13 30 -28 67 -31 81 -7 29 -76 -43 708 754 220
224 406 413 412 420 7 7 16 15 20 17 5 2 22 18 38 36 l30 33 -98 -3 c-53 -2
-97 -2 -97 -1 0 1 18 21 40 45 22 24 40 46 40 51 0 4 -139 7 -308 7 l-308 0
-100 -103 c-54 -57 -178 -186 -274 -287 -96 -100 -213 -222 -260 -270 -152
-156 -270 -281 -270 -286 0 -2 -8 -12 -17 -22 -10 -10 -45 -49 -78 -87 -33
-37 -69 -77 -80 -89 -11 -12 -31 -35 -45 -51 -15 -17 -36 -38 -47 -48 -21 -18
-21 -18 -18 5 13 94 17 116 26 157 6 25 13 57 15 71 3 14 16 81 31 150 14 69
27 137 29 151 2 14 8 48 14 75 15 65 17 72 40 194 11 58 22 116 25 130 3 14 8
41 11 60 3 19 7 42 10 49 3 8 7 34 10 58 l5 43 -56 0 -57 0 7 50 7 50 -250 0
c-188 0 -252 -3 -259 -12z"/>
<path d="M3487 4173 c-5 -8 -13 -44 -22 -93 -2 -14 -16 -81 -30 -150 -14 -69
-28 -141 -31 -160 -3 -19 -9 -48 -14 -65 -5 -16 -12 -48 -15 -70 -7 -45 -13
-70 -15 -70 -1 0 -3 -9 -4 -20 -1 -11 -6 -38 -11 -60 -4 -22 -9 -49 -11 -60
-2 -11 -17 -85 -33 -165 -17 -80 -33 -158 -37 -175 -3 -16 -10 -50 -15 -75 -6
-25 -12 -56 -14 -70 -2 -14 -9 -47 -15 -75 -5 -27 -12 -61 -15 -75 -2 -14 -7
-36 -10 -50 -21 -104 -26 -131 -28 -149 -1 -12 -5 -21 -10 -21 -4 0 -6 -4 -3
-8 2 -4 -2 -39 -11 -77 -8 -39 -16 -81 -18 -95 -2 -14 -10 -58 -19 -97 -15
-69 -19 -89 -31 -158 -3 -16 -8 -37 -10 -45 -2 -8 -7 -31 -10 -50 -3 -19 -8
-42 -10 -50 -2 -8 -7 -31 -10 -50 -3 -19 -17 -91 -31 -160 -14 -69 -27 -134
-30 -145 -2 -11 -7 -33 -11 -50 -3 -16 -7 -37 -8 -45 -3 -20 -12 -65 -30 -151
-8 -39 -13 -75 -9 -80 3 -5 28 -9 55 -9 l51 0 -4 -47 -3 -48 580 -2 c603 -1
669 2 859 46 71 17 242 89 304 128 29 18 56 33 60 33 4 0 43 27 87 60 102 77
225 204 305 315 126 175 246 454 295 690 16 72 25 126 30 175 2 19 5 35 5 35
4 0 19 208 21 290 2 72 -12 220 -26 295 -7 36 -19 94 -20 100 -12 44 -19 67
-26 75 -4 6 -8 15 -9 20 -3 30 -13 55 -21 55 -5 0 -8 3 -7 8 4 11 -26 72 -34
72 -5 0 -8 7 -8 16 0 8 -4 13 -8 10 -5 -3 -9 1 -10 9 -1 8 -3 22 -4 29 -1 8
-4 15 -7 14 -20 -2 -31 3 -26 12 3 6 0 13 -9 16 -8 3 -12 12 -9 20 3 9 -2 14
-17 14 -11 0 -19 4 -16 9 7 10 -146 170 -214 224 -89 70 -274 152 -390 172
-19 4 -71 13 -115 20 -62 11 -194 15 -587 15 -279 0 -509 -3 -511 -7z m1193
-572 c25 -7 55 -14 68 -15 31 -3 96 -60 115 -102 37 -76 62 -217 60 -339 -1
-72 -16 -210 -23 -210 -1 0 -4 -11 -5 -25 -5 -31 -9 -53 -29 -155 -8 -44 -17
-91 -20 -105 -4 -22 -31 -147 -41 -190 -46 -198 -124 -357 -232 -469 -13 -13
-23 -28 -23 -32 0 -5 -5 -9 -11 -9 -7 0 -19 -8 -28 -18 -47 -51 -148 -102
-279 -142 -91 -27 -101 -28 -343 -29 -199 -2 -249 1 -249 11 0 7 10 56 21 108
11 52 22 104 23 115 2 11 8 45 15 75 6 30 13 64 15 75 2 11 13 65 25 120 11
55 23 111 25 125 3 14 8 36 11 50 3 14 8 36 11 50 3 14 14 68 25 120 11 52 22
111 25 130 3 19 8 38 10 41 2 3 6 21 9 40 3 19 8 41 10 49 2 8 7 31 10 50 3
19 19 98 35 175 16 77 31 151 34 165 15 84 69 346 73 353 8 13 611 2 663 -12z"/>
</g>
</svg>
